{"title":"Wisin Ft. Plan B - Piquete [1080p]","uid":12684065,"size":127198990,"categoryP":"video","categoryS":"music_videos","magnet":"?xt=urn:btih:32e0038cfb3d4f6636ec026460c9f69a97da6a8e&amp;dn=Wisin+Ft.+Plan+B+-+Piquete+%5B1080p%5D&amp;tr=udp%3A%2F%2Ftracker.leechers-paradise.org%3A6969&amp;tr=udp%3A%2F%2Fzer0day.ch%3A1337&amp;tr=udp%3A%2F%2Fopen.demonii.com%3A1337&amp;tr=udp%3A%2F%2Ftracker.coppersurfer.tk%3A6969&amp;tr=udp%3A%2F%2Fexodus.desync.com%3A6969","seeders":0,"leechers":1,"uploader":"MusicVideos-HQ","files":1,"time":1446580296,"description":"Capturas: http://i.imgur.com/KJsIPV1.jpg\r\n\r\n\r\nGeneral\r\n\r\nFormat                         : MPEG-4\r\nFormat profile                 : Base Media\r\nCodec ID                       : isom\r\nFile size                      : 121 MiB\r\nDuration                       : 4mn 16s\r\nOverall bit rate               : 3 966 Kbps\r\nWriting application            : Lavf55.33.100\r\n\r\nVideo\r\nID                             : 1\r\nFormat                         : AVC\r\nFormat/Info                    : Advanced Video Codec\r\nFormat profile                 :   \r\nFormat settings, CABAC         : Yes\r\nFormat settings, ReFrames      : 3 frames\r\nCodec ID                       : avc1\r\nCodec ID/Info                  : Advanced Video Coding\r\nDuration                       : 4mn 16s\r\nBit rate                       : 3 834 Kbps\r\nWidth                          : 1 920 pixels\r\nHeight                         : 1 080 pixels\r\nDisplay aspect ratio           : 16:9\r\nFrame rate mode                : Variable\r\nFrame rate                     : 23.976 fps\r\nMinimum frame rate             : 23.974 fps\r\nMaximum frame rate             : 90 000.000 fps\r\nColor space                    : YUV\r\nChroma subsampling             : 4:2:0\r\nBit depth                      : 8 bits\r\nScan type                      : Progressive\r\nBits/(Pixel*Frame)             : 0.077\r\nStream size                    : 117 MiB (97%)\r\nColor range                    : Limited\r\nColor primaries                : BT.709\r\nTransfer characteristics       : BT.709\r\nMatrix coefficients            : BT.709\r\n\r\nAudio\r\nID                             : 2\r\nFormat                         : AAC\r\nFormat/Info                    : Advanced Audio Codec\r\nFormat profile                 : LC\r\nCodec ID                       : 40\r\nDuration                       : 4mn 16s\r\nBit rate mode                  : Constant\r\nBit rate                       : 126 Kbps\r\nChannel(s)                     : 2 channels\r\nChannel positions              : Front: L R\r\nSampling rate                  : 44.1 KHz\r\nCompression mode               : Lossy\r\nStream size                    : 3.84 MiB (3%)","torrent":{"xt":"urn:btih:32e0038cfb3d4f6636ec026460c9f69a97da6a8e","amp;dn":"Wisin+Ft.+Plan+B+-+Piquete+%5B1080p%5D","amp;tr":["udp%3A%2F%2Ftracker.leechers-paradise.org%3A6969","udp%3A%2F%2Fzer0day.ch%3A1337","udp%3A%2F%2Fopen.demonii.com%3A1337","udp%3A%2F%2Ftracker.coppersurfer.tk%3A6969","udp%3A%2F%2Fexodus.desync.com%3A6969"],"infoHash":"32e0038cfb3d4f6636ec026460c9f69a97da6a8e","infoHashBuffer":{"type":"Buffer","data":[50,224,3,140,251,61,79,102,54,236,2,100,96,201,246,154,151,218,106,142]},"announce":[],"urlList":[]}}